<svg width="210" height="79" viewBox="0 0 210 79" fill="none" xmlns="http://www.w3.org/2000/svg">
<path d="M45.5504 69.1278C45.5495 69.5507 45.2056 69.8918 44.7825 69.8918H34.1103C32.7342 69.8915 31.463 69.154 30.7802 67.9593L15.0998 40.5224C14.7095 39.8395 13.6651 40.1179 13.6651 40.9044V69.8918L0 79V16.0105C0.000354758 15.5872 0.344439 15.2427 0.767914 15.2427H11.44C12.8159 15.2431 14.0873 15.981 14.7702 17.1752L30.4506 44.6159C30.8409 45.2988 31.8853 45.0204 31.8853 44.2339V15.2427L45.5504 6.13454V69.1278ZM71.562 21.2612C77.4534 21.2613 82.0878 22.7961 85.4632 25.8639C88.8992 28.8702 90.9251 32.7352 91.539 37.4589C91.9073 40.4656 92.0897 43.2596 92.0897 45.8368C92.0897 48.291 91.9072 50.9924 91.539 53.9375C90.8638 58.5385 88.8378 62.4036 85.4632 65.5325C82.0878 68.6003 77.4534 70.1351 71.562 70.1353C65.6704 70.1353 61.0364 68.6003 57.6609 65.5325C54.2858 62.4034 52.2889 58.5389 51.675 53.9375C51.3067 50.9924 51.1243 48.291 51.1243 45.8368C51.1243 44.4262 51.1529 43.0763 51.2142 41.7883C51.337 40.4384 51.4908 38.9929 51.675 37.4589C52.3503 32.7961 54.3471 28.9317 57.6609 25.8639C61.0364 22.796 65.6703 21.2612 71.562 21.2612ZM145.203 21.2612C151.094 21.2614 155.729 22.7962 159.104 25.8639C162.54 28.8702 164.566 32.7353 165.18 37.4589C165.548 40.4656 165.731 43.2596 165.731 45.8368C165.731 48.291 165.548 50.9924 165.18 53.9375C164.505 58.5384 162.479 62.4036 159.104 65.5325C155.729 68.6002 151.094 70.135 145.203 70.1353C139.312 70.1353 134.677 68.6002 131.302 65.5325C127.927 62.4035 125.93 58.5388 125.316 53.9375C124.948 50.9924 124.765 48.291 124.765 45.8368C124.765 44.4262 124.794 43.0763 124.855 41.7883C124.978 40.4384 125.132 38.9929 125.316 37.4589C125.991 32.7962 127.988 28.9316 131.302 25.8639C134.677 22.7962 139.312 21.2612 145.203 21.2612ZM210 69.0304H197.755V67.0043C197.754 66.5147 197.603 66.1772 197.298 65.9931C196.991 65.809 196.497 65.9021 195.822 66.2703L190.3 69.581C189.748 69.7037 189.193 69.7967 188.641 69.8581C188.089 69.9193 187.476 69.9517 186.802 69.9517C181.462 69.9517 177.44 68.5994 174.74 65.8995C172.04 63.1998 170.476 59.4567 170.046 54.6716C169.923 52.8316 169.802 51.2062 169.679 49.7954C169.618 48.3233 169.585 46.8805 169.585 45.4698C169.585 44.0585 169.618 42.6453 169.679 41.234C169.74 39.8231 169.862 38.2589 170.046 36.5413C170.537 31.6939 172.194 27.9482 175.017 25.3097C177.84 22.6101 182.016 21.2612 187.539 21.2612C189.564 21.2613 191.498 21.5368 193.338 22.0888C195.179 22.6409 196.65 23.3786 197.755 24.2985V0H210V69.0304ZM125.515 32.2157C120.114 32.2157 116.246 33.1637 113.913 35.0658C111.581 36.9066 110.415 39.5468 110.415 42.983V69.0304H98.4465V35.62L93.1086 27.7028L103.05 21.1675L106.549 26.4145C106.917 26.8439 107.286 27.0909 107.654 27.1523C108.022 27.1523 108.423 26.9376 108.853 26.5081C110.448 25.0971 112.474 23.8696 114.929 22.8266C117.383 21.7225 120.422 21.1675 124.042 21.1675H125.515V32.2157ZM71.562 31.3843C69.0457 31.3843 67.049 32.1535 65.5761 33.6875C64.165 35.16 63.3665 36.9708 63.1824 39.118C62.9984 41.5717 62.909 43.7801 62.909 45.7431C62.909 47.7065 63.0306 49.8856 63.2761 52.2784C63.5216 54.3646 64.3196 56.1749 65.6697 57.7089C67.0813 59.1815 69.0457 59.9185 71.562 59.9185C74.2006 59.9183 76.1942 59.1813 77.5443 57.7089C78.8945 56.1749 79.6924 54.3647 79.9379 52.2784C80.2447 49.8856 80.3987 47.7065 80.3987 45.7431C80.3986 43.7801 80.277 41.5716 80.0316 39.118C79.7861 36.9704 78.9559 35.1602 77.5443 33.6875C76.1942 32.1537 74.2006 31.3845 71.562 31.3843ZM145.203 31.3843C142.687 31.3843 140.69 32.1535 139.217 33.6875C137.806 35.1601 137.008 36.9707 136.823 39.118C136.639 41.5717 136.546 43.7801 136.546 45.7431C136.546 47.7065 136.672 49.8856 136.917 52.2784C137.163 54.3647 137.961 56.1749 139.311 57.7089C140.722 59.1814 142.687 59.9185 145.203 59.9185C147.841 59.9182 149.835 59.1813 151.185 57.7089C152.535 56.1749 153.333 54.3646 153.579 52.2784C153.886 49.8856 154.04 47.7065 154.04 45.7431C154.04 43.7801 153.918 41.5716 153.673 39.118C153.427 36.9705 152.597 35.1601 151.185 33.6875C149.835 32.1538 147.841 31.3846 145.203 31.3843ZM189.929 31.4779C187.475 31.4782 185.603 32.1222 184.314 33.4104C183.087 34.6375 182.382 36.1118 182.198 37.8297C181.952 40.4065 181.831 43.0151 181.831 45.6533C181.892 48.2914 182.014 50.9001 182.198 53.4769C182.382 55.1944 183.059 56.6978 184.224 57.986C185.452 59.2125 187.353 59.8246 189.929 59.8249C192.446 59.8249 194.382 59.181 195.732 57.8924C197.081 56.604 197.755 54.947 197.755 52.9226V38.2903C197.755 36.2042 197.11 34.5477 195.822 33.3205C194.594 32.0933 192.63 31.4779 189.929 31.4779Z" fill="url(#paint0_linear_10_33)"/>
<defs>
<linearGradient id="paint0_linear_10_33" x1="210" y1="44.5" x2="-1.47475e-06" y2="44.5" gradientUnits="userSpaceOnUse">
<stop stop-color="#FF5733"/>
<stop offset="1" stop-color="#F05D5E"/>
</linearGradient>
</defs>
</svg>
